<svg width="156" height="93" viewBox="0 0 156 93" fill="none" xmlns="http://www.w3.org/2000/svg">
<path fill-rule="evenodd" clip-rule="evenodd" d="M112.478 88.4748C126.407 88.8114 140.64 88.1382 153.958 92.9113C154.751 93.1928 155.624 92.7828 155.911 91.9873C156.192 91.1918 155.783 90.3167 154.989 90.0291C141.36 85.1459 126.803 85.7578 112.552 85.4151C111.709 85.3907 111.007 86.0638 110.988 86.9083C110.964 87.7527 111.636 88.4503 112.478 88.4748Z" fill="url(#paint0_linear_16_85)"/>
<path fill-rule="evenodd" clip-rule="evenodd" d="M111.227 68.2094C115.568 64.2061 120.307 61.2071 126.034 59.7207C126.852 59.5089 127.341 58.6736 127.133 57.8561C126.919 57.0385 126.083 56.5472 125.271 56.7589C119.043 58.3744 113.883 61.6066 109.163 65.9569C108.54 66.5284 108.497 67.4971 109.071 68.1188C109.639 68.7399 110.61 68.7809 111.227 68.2094Z" fill="url(#paint1_linear_16_85)"/>
<path fill-rule="evenodd" clip-rule="evenodd" d="M99.1489 24.5034C101.14 17.665 105.06 12.3155 111.068 8.45238C111.776 7.99649 111.984 7.04923 111.526 6.33878C111.074 5.62833 110.128 5.42148 109.419 5.87737C102.77 10.1548 98.4222 16.0746 96.2179 23.646C95.9798 24.4562 96.45 25.3068 97.256 25.5431C98.0681 25.7799 98.9169 25.3136 99.1489 24.5034Z" fill="url(#paint2_linear_16_85)"/>
<path fill-rule="evenodd" clip-rule="evenodd" d="M30.546 15.2228C29.3614 16.6198 28.2989 18.1252 27.3952 19.7278C26.9922 20.4413 26.2839 21.9577 26.174 23.2581C26.0518 24.6435 26.522 25.8123 27.731 26.4279C29.3369 27.2442 30.6193 27.1592 31.6085 26.6653C32.561 26.1911 33.3059 25.2591 33.7761 24.0095C34.6737 21.6212 34.5394 17.971 34.0692 15.888C35.3332 14.5809 36.7193 13.3955 38.2031 12.3418C49.2552 4.49376 65.4671 7.3876 77.942 19.122C82.3079 23.2305 84.4084 31.8588 85.5014 41.1681C87.205 55.6629 86.2342 71.8522 86.0998 76.5953C86.0693 77.7666 86.1792 78.4617 86.2402 78.6006C86.5272 79.2835 87.034 79.461 87.3882 79.5283C87.9011 79.6201 88.3102 79.5222 88.6399 79.3509C89.0857 79.1159 89.4521 78.7022 89.6231 78.0639C89.7147 77.7115 89.7391 77.2207 89.7268 76.6975C89.7146 76.3346 89.6413 75.9381 89.7146 75.678C90.1909 74.0124 90.7649 72.3858 91.3267 70.7477C93.2012 65.2409 95.6254 60.0805 98.3182 54.9262C106.873 38.5484 115.147 21.2436 129.173 8.76567C129.802 8.20575 129.863 7.23768 129.301 6.60616C128.745 5.97465 127.78 5.91711 127.145 6.47764C112.839 19.2022 104.339 36.805 95.6132 53.5071C93.3234 57.8916 91.2228 62.2822 89.4765 66.8748C89.6535 58.7508 89.5864 47.5053 88.1026 37.5552C86.7836 28.7061 84.274 20.8856 80.0303 16.8915C66.3647 4.03665 48.5408 1.24809 36.4384 9.84574C35.1439 10.7661 33.9105 11.7782 32.7625 12.876C26.4304 1.41761 12.8747 -3.17497 0.894452 2.30549C0.125076 2.65613 -0.210757 3.56424 0.137294 4.33222C0.491452 5.1002 1.39513 5.43922 2.16451 5.08858C12.9602 0.150288 25.2031 4.55741 30.546 15.2228ZM31.4314 19.059C30.9368 19.759 30.4788 20.4848 30.0514 21.235C29.8254 21.6377 29.4346 22.4118 29.2698 23.1693C29.2331 23.3468 29.227 23.6246 29.227 23.7531C29.6484 23.9612 29.9781 24.0615 30.2467 23.9263C30.5826 23.7599 30.7536 23.3682 30.9185 22.9307C31.3337 21.8329 31.468 20.3777 31.4314 19.059Z" fill="url(#paint3_linear_16_85)"/>
<defs>
<linearGradient id="paint0_linear_16_85" x1="110.988" y1="89.2073" x2="156" y2="89.2073" gradientUnits="userSpaceOnUse">
<stop stop-color="#B224EF"/>
<stop offset="1" stop-color="#7579FF"/>
</linearGradient>
<linearGradient id="paint1_linear_16_85" x1="108.667" y1="62.6612" x2="127.181" y2="62.6612" gradientUnits="userSpaceOnUse">
<stop stop-color="#B224EF"/>
<stop offset="1" stop-color="#7579FF"/>
</linearGradient>
<linearGradient id="paint2_linear_16_85" x1="96.156" y1="15.62" x2="111.77" y2="15.62" gradientUnits="userSpaceOnUse">
<stop stop-color="#B224EF"/>
<stop offset="1" stop-color="#7579FF"/>
</linearGradient>
<linearGradient id="paint3_linear_16_85" x1="0" y1="39.7817" x2="129.686" y2="39.7817" gradientUnits="userSpaceOnUse">
<stop stop-color="#B224EF"/>
<stop offset="1" stop-color="#7579FF"/>
</linearGradient>
</defs>
</svg>
