<svg width="1512" height="1180" viewBox="0 0 1512 1180" fill="none" xmlns="http://www.w3.org/2000/svg">
<path d="M0.000244141 991.004V0.998535H1512V991.004C1415.2 1082.63 1174.57 1114.21 786.915 991.004C432.803 878.458 117.413 899.373 0.000244141 991.004Z" fill="#1B1C37" stroke="black"/>
<path d="M15.5042 0.998535L15.5042 1179.38M200.722 0.998535L200.722 1179.38M385.94 0.998535L385.94 1179.38M571.157 0.998535L571.157 1179.38M756.375 0.998535L756.375 1179.38M941.593 0.998535L941.593 1179.38M1126.81 0.998535L1126.81 1179.38M1312.03 0.998535L1312.03 1179.38M1497.25 0.998535L1497.25 1179.38M15.0002 1146.43H1496.74M15.0002 961.042L1496.74 961.042M15.0002 775.653L1496.74 775.653M15.0002 590.263L1496.74 590.264M15.0002 404.874L1496.74 404.874M15.0002 219.485L1496.74 219.485M15.0002 34.0959L1496.74 34.0959" stroke="url(#paint0_radial_16_200)" stroke-opacity="0.3"/>
<ellipse cx="14.2639" cy="254.091" rx="10.3943" ry="10.0912" fill="#EDEEFF"/>
<ellipse cx="51.0895" cy="254.091" rx="10.3943" ry="10.0912" fill="#EDEEFF"/>
<ellipse cx="86.7271" cy="254.091" rx="10.3943" ry="10.0912" fill="#EDEEFF"/>
<ellipse cx="14.2639" cy="283.5" rx="10.3943" ry="10.0912" fill="#EDEEFF"/>
<ellipse cx="51.0895" cy="283.5" rx="10.3943" ry="10.0912" fill="#EDEEFF"/>
<ellipse cx="86.7271" cy="283.5" rx="10.3943" ry="10.0912" fill="#EDEEFF"/>
<ellipse cx="14.2639" cy="312.909" rx="10.3943" ry="10.0912" fill="#EDEEFF"/>
<ellipse cx="51.0895" cy="312.909" rx="10.3943" ry="10.0912" fill="#EDEEFF"/>
<ellipse cx="86.7271" cy="312.909" rx="10.3943" ry="10.0912" fill="#EDEEFF"/>
<g filter="url(#filter0_d_16_200)">
<rect x="157" y="414" width="1198.96" height="363" rx="60" fill="white" shape-rendering="crispEdges"/>
<path d="M294.924 711L289.38 701.208H287.004V711H281.964V685.872H291.396C293.34 685.872 294.996 686.22 296.364 686.916C297.732 687.588 298.752 688.512 299.424 689.688C300.12 690.84 300.468 692.136 300.468 693.576C300.468 695.232 299.988 696.732 299.028 698.076C298.068 699.396 296.64 700.308 294.744 700.812L300.756 711H294.924ZM287.004 697.428H291.216C292.584 697.428 293.604 697.104 294.276 696.456C294.948 695.784 295.284 694.86 295.284 693.684C295.284 692.532 294.948 691.644 294.276 691.02C293.604 690.372 292.584 690.048 291.216 690.048H287.004V697.428ZM323.567 700.596C323.567 701.316 323.519 701.964 323.423 702.54H308.843C308.963 703.98 309.467 705.108 310.355 705.924C311.243 706.74 312.335 707.148 313.631 707.148C315.503 707.148 316.835 706.344 317.627 704.736H323.063C322.487 706.656 321.383 708.24 319.751 709.488C318.119 710.712 316.115 711.324 313.739 711.324C311.819 711.324 310.091 710.904 308.555 710.064C307.043 709.2 305.855 707.988 304.991 706.428C304.151 704.868 303.731 703.068 303.731 701.028C303.731 698.964 304.151 697.152 304.991 695.592C305.831 694.032 307.007 692.832 308.519 691.992C310.031 691.152 311.771 690.732 313.739 690.732C315.635 690.732 317.327 691.14 318.815 691.956C320.327 692.772 321.491 693.936 322.307 695.448C323.147 696.936 323.567 698.652 323.567 700.596ZM318.347 699.156C318.323 697.86 317.855 696.828 316.943 696.06C316.031 695.268 314.915 694.872 313.595 694.872C312.347 694.872 311.291 695.256 310.427 696.024C309.587 696.768 309.071 697.812 308.879 699.156H318.347ZM334.877 711.324C333.245 711.324 331.781 711.036 330.485 710.46C329.189 709.86 328.157 709.056 327.389 708.048C326.645 707.04 326.237 705.924 326.165 704.7H331.241C331.337 705.468 331.709 706.104 332.357 706.608C333.029 707.112 333.857 707.364 334.841 707.364C335.801 707.364 336.545 707.172 337.073 706.788C337.625 706.404 337.901 705.912 337.901 705.312C337.901 704.664 337.565 704.184 336.893 703.872C336.245 703.536 335.201 703.176 333.761 702.792C332.273 702.432 331.049 702.06 330.089 701.676C329.153 701.292 328.337 700.704 327.641 699.912C326.969 699.12 326.633 698.052 326.633 696.708C326.633 695.604 326.945 694.596 327.569 693.684C328.217 692.772 329.129 692.052 330.305 691.524C331.505 690.996 332.909 690.732 334.517 690.732C336.893 690.732 338.789 691.332 340.205 692.532C341.621 693.708 342.401 695.304 342.545 697.32H337.721C337.649 696.528 337.313 695.904 336.713 695.448C336.137 694.968 335.357 694.728 334.373 694.728C333.461 694.728 332.753 694.896 332.249 695.232C331.769 695.568 331.529 696.036 331.529 696.636C331.529 697.308 331.865 697.824 332.537 698.184C333.209 698.52 334.253 698.868 335.669 699.228C337.109 699.588 338.297 699.96 339.233 700.344C340.169 700.728 340.973 701.328 341.645 702.144C342.341 702.936 342.701 703.992 342.725 705.312C342.725 706.464 342.401 707.496 341.753 708.408C341.129 709.32 340.217 710.04 339.017 710.568C337.841 711.072 336.461 711.324 334.877 711.324ZM351.903 693.936C352.551 693.024 353.439 692.268 354.567 691.668C355.719 691.044 357.027 690.732 358.491 690.732C360.195 690.732 361.731 691.152 363.099 691.992C364.491 692.832 365.583 694.032 366.375 695.592C367.191 697.128 367.599 698.916 367.599 700.956C367.599 702.996 367.191 704.808 366.375 706.392C365.583 707.952 364.491 709.164 363.099 710.028C361.731 710.892 360.195 711.324 358.491 711.324C357.027 711.324 355.731 711.024 354.603 710.424C353.499 709.824 352.599 709.068 351.903 708.156V720.504H346.863V691.056H351.903V693.936ZM362.451 700.956C362.451 699.756 362.199 698.724 361.695 697.86C361.215 696.972 360.567 696.3 359.751 695.844C358.959 695.388 358.095 695.16 357.159 695.16C356.247 695.16 355.383 695.4 354.567 695.88C353.775 696.336 353.127 697.008 352.623 697.896C352.143 698.784 351.903 699.828 351.903 701.028C351.903 702.228 352.143 703.272 352.623 704.16C353.127 705.048 353.775 705.732 354.567 706.212C355.383 706.668 356.247 706.896 357.159 706.896C358.095 706.896 358.959 706.656 359.751 706.176C360.567 705.696 361.215 705.012 361.695 704.124C362.199 703.236 362.451 702.18 362.451 700.956ZM380.117 711.324C378.197 711.324 376.469 710.904 374.933 710.064C373.397 709.2 372.185 707.988 371.297 706.428C370.433 704.868 370.001 703.068 370.001 701.028C370.001 698.988 370.445 697.188 371.333 695.628C372.245 694.068 373.481 692.868 375.041 692.028C376.601 691.164 378.341 690.732 380.261 690.732C382.181 690.732 383.921 691.164 385.481 692.028C387.041 692.868 388.265 694.068 389.153 695.628C390.065 697.188 390.521 698.988 390.521 701.028C390.521 703.068 390.053 704.868 389.117 706.428C388.205 707.988 386.957 709.2 385.373 710.064C383.813 710.904 382.061 711.324 380.117 711.324ZM380.117 706.932C381.029 706.932 381.881 706.716 382.673 706.284C383.489 705.828 384.137 705.156 384.617 704.268C385.097 703.38 385.337 702.3 385.337 701.028C385.337 699.132 384.833 697.68 383.825 696.672C382.841 695.64 381.629 695.124 380.189 695.124C378.749 695.124 377.537 695.64 376.553 696.672C375.593 697.68 375.113 699.132 375.113 701.028C375.113 702.924 375.581 704.388 376.517 705.42C377.477 706.428 378.677 706.932 380.117 706.932ZM405.27 690.768C407.646 690.768 409.566 691.524 411.03 693.036C412.494 694.524 413.226 696.612 413.226 699.3V711H408.186V699.984C408.186 698.4 407.79 697.188 406.998 696.348C406.206 695.484 405.126 695.052 403.758 695.052C402.366 695.052 401.262 695.484 400.446 696.348C399.654 697.188 399.258 698.4 399.258 699.984V711H394.218V691.056H399.258V693.54C399.93 692.676 400.782 692.004 401.814 691.524C402.87 691.02 404.022 690.768 405.27 690.768ZM425.651 711.324C424.019 711.324 422.555 711.036 421.259 710.46C419.963 709.86 418.931 709.056 418.163 708.048C417.419 707.04 417.011 705.924 416.939 704.7H422.015C422.111 705.468 422.483 706.104 423.131 706.608C423.803 707.112 424.631 707.364 425.615 707.364C426.575 707.364 427.319 707.172 427.847 706.788C428.399 706.404 428.675 705.912 428.675 705.312C428.675 704.664 428.339 704.184 427.667 703.872C427.019 703.536 425.975 703.176 424.535 702.792C423.047 702.432 421.823 702.06 420.863 701.676C419.927 701.292 419.111 700.704 418.415 699.912C417.743 699.12 417.407 698.052 417.407 696.708C417.407 695.604 417.719 694.596 418.343 693.684C418.991 692.772 419.903 692.052 421.079 691.524C422.279 690.996 423.683 690.732 425.291 690.732C427.667 690.732 429.563 691.332 430.979 692.532C432.395 693.708 433.175 695.304 433.319 697.32H428.495C428.423 696.528 428.087 695.904 427.487 695.448C426.911 694.968 426.131 694.728 425.147 694.728C424.235 694.728 423.527 694.896 423.023 695.232C422.543 695.568 422.303 696.036 422.303 696.636C422.303 697.308 422.639 697.824 423.311 698.184C423.983 698.52 425.027 698.868 426.443 699.228C427.883 699.588 429.071 699.96 430.007 700.344C430.943 700.728 431.747 701.328 432.419 702.144C433.115 702.936 433.475 703.992 433.499 705.312C433.499 706.464 433.175 707.496 432.527 708.408C431.903 709.32 430.991 710.04 429.791 710.568C428.615 711.072 427.235 711.324 425.651 711.324ZM440.192 688.68C439.304 688.68 438.56 688.404 437.96 687.852C437.384 687.276 437.096 686.568 437.096 685.728C437.096 684.888 437.384 684.192 437.96 683.64C438.56 683.064 439.304 682.776 440.192 682.776C441.08 682.776 441.812 683.064 442.388 683.64C442.988 684.192 443.288 684.888 443.288 685.728C443.288 686.568 442.988 687.276 442.388 687.852C441.812 688.404 441.08 688.68 440.192 688.68ZM442.676 691.056V711H437.636V691.056H442.676ZM452.696 693.972C453.344 693.012 454.232 692.232 455.36 691.632C456.512 691.032 457.82 690.732 459.284 690.732C460.988 690.732 462.524 691.152 463.892 691.992C465.284 692.832 466.376 694.032 467.168 695.592C467.984 697.128 468.392 698.916 468.392 700.956C468.392 702.996 467.984 704.808 467.168 706.392C466.376 707.952 465.284 709.164 463.892 710.028C462.524 710.892 460.988 711.324 459.284 711.324C457.796 711.324 456.488 711.036 455.36 710.46C454.256 709.86 453.368 709.092 452.696 708.156V711H447.656V684.36H452.696V693.972ZM463.244 700.956C463.244 699.756 462.992 698.724 462.488 697.86C462.008 696.972 461.36 696.3 460.544 695.844C459.752 695.388 458.888 695.16 457.952 695.16C457.04 695.16 456.176 695.4 455.36 695.88C454.568 696.336 453.92 697.008 453.416 697.896C452.936 698.784 452.696 699.828 452.696 701.028C452.696 702.228 452.936 703.272 453.416 704.16C453.92 705.048 454.568 705.732 455.36 706.212C456.176 706.668 457.04 706.896 457.952 706.896C458.888 706.896 459.752 706.656 460.544 706.176C461.36 705.696 462.008 705.012 462.488 704.124C462.992 703.236 463.244 702.18 463.244 700.956ZM474.61 688.68C473.722 688.68 472.978 688.404 472.378 687.852C471.802 687.276 471.514 686.568 471.514 685.728C471.514 684.888 471.802 684.192 472.378 683.64C472.978 683.064 473.722 682.776 474.61 682.776C475.498 682.776 476.23 683.064 476.806 683.64C477.406 684.192 477.706 684.888 477.706 685.728C477.706 686.568 477.406 687.276 476.806 687.852C476.23 688.404 475.498 688.68 474.61 688.68ZM477.094 691.056V711H472.054V691.056H477.094ZM487.113 684.36V711H482.073V684.36H487.113ZM494.649 688.68C493.761 688.68 493.017 688.404 492.417 687.852C491.841 687.276 491.553 686.568 491.553 685.728C491.553 684.888 491.841 684.192 492.417 683.64C493.017 683.064 493.761 682.776 494.649 682.776C495.537 682.776 496.269 683.064 496.845 683.64C497.445 684.192 497.745 684.888 497.745 685.728C497.745 686.568 497.445 687.276 496.845 687.852C496.269 688.404 495.537 688.68 494.649 688.68ZM497.133 691.056V711H492.093V691.056H497.133ZM507.981 695.196V704.844C507.981 705.516 508.137 706.008 508.449 706.32C508.785 706.608 509.337 706.752 510.105 706.752H512.445V711H509.277C505.029 711 502.905 708.936 502.905 704.808V695.196H500.529V691.056H502.905V686.124H507.981V691.056H512.445V695.196H507.981ZM535.15 691.056L522.802 720.432H517.438L521.758 710.496L513.766 691.056H519.418L524.566 704.988L529.786 691.056H535.15Z" fill="#5F6073"/>
<path d="M330.208 611.456V601.28H347.936V648H336.544V611.456H330.208ZM355.423 624C355.423 616.661 356.831 610.88 359.647 606.656C362.505 602.432 367.092 600.32 373.407 600.32C379.721 600.32 384.287 602.432 387.103 606.656C389.961 610.88 391.391 616.661 391.391 624C391.391 631.424 389.961 637.248 387.103 641.472C384.287 645.696 379.721 647.808 373.407 647.808C367.092 647.808 362.505 645.696 359.647 641.472C356.831 637.248 355.423 631.424 355.423 624ZM380.639 624C380.639 619.691 380.169 616.384 379.231 614.08C378.292 611.733 376.351 610.56 373.407 610.56C370.463 610.56 368.521 611.733 367.583 614.08C366.644 616.384 366.175 619.691 366.175 624C366.175 626.901 366.345 629.312 366.687 631.232C367.028 633.109 367.711 634.645 368.735 635.84C369.801 636.992 371.359 637.568 373.407 637.568C375.455 637.568 376.991 636.992 378.015 635.84C379.081 634.645 379.785 633.109 380.127 631.232C380.468 629.312 380.639 626.901 380.639 624ZM397.173 624C397.173 616.661 398.581 610.88 401.397 606.656C404.255 602.432 408.842 600.32 415.157 600.32C421.471 600.32 426.037 602.432 428.853 606.656C431.711 610.88 433.141 616.661 433.141 624C433.141 631.424 431.711 637.248 428.853 641.472C426.037 645.696 421.471 647.808 415.157 647.808C408.842 647.808 404.255 645.696 401.397 641.472C398.581 637.248 397.173 631.424 397.173 624ZM422.389 624C422.389 619.691 421.919 616.384 420.981 614.08C420.042 611.733 418.101 610.56 415.157 610.56C412.213 610.56 410.271 611.733 409.333 614.08C408.394 616.384 407.925 619.691 407.925 624C407.925 626.901 408.095 629.312 408.437 631.232C408.778 633.109 409.461 634.645 410.485 635.84C411.551 636.992 413.109 637.568 415.157 637.568C417.205 637.568 418.741 636.992 419.765 635.84C420.831 634.645 421.535 633.109 421.877 631.232C422.218 629.312 422.389 626.901 422.389 624ZM438.027 613.056C438.027 609.6 439.008 606.933 440.971 605.056C442.976 603.179 445.557 602.24 448.715 602.24C451.872 602.24 454.432 603.179 456.395 605.056C458.357 606.933 459.339 609.6 459.339 613.056C459.339 616.512 458.357 619.179 456.395 621.056C454.432 622.933 451.872 623.872 448.715 623.872C445.557 623.872 442.976 622.933 440.971 621.056C439.008 619.179 438.027 616.512 438.027 613.056ZM481.483 602.944L456.843 648H446.283L470.923 602.944H481.483ZM448.651 608.64C446.603 608.64 445.579 610.112 445.579 613.056C445.579 615.957 446.603 617.408 448.651 617.408C449.632 617.408 450.4 617.045 450.955 616.32C451.509 615.595 451.787 614.507 451.787 613.056C451.787 610.112 450.741 608.64 448.651 608.64ZM468.491 637.888C468.491 634.432 469.472 631.765 471.435 629.888C473.397 628.011 475.957 627.072 479.115 627.072C482.272 627.072 484.832 628.011 486.795 629.888C488.757 631.765 489.739 634.432 489.739 637.888C489.739 641.344 488.757 644.011 486.795 645.888C484.832 647.765 482.272 648.704 479.115 648.704C475.957 648.704 473.397 647.765 471.435 645.888C469.472 644.011 468.491 641.344 468.491 637.888ZM479.051 633.472C478.069 633.472 477.301 633.835 476.747 634.56C476.235 635.285 475.979 636.395 475.979 637.888C475.979 640.789 477.003 642.24 479.051 642.24C480.032 642.24 480.8 641.877 481.355 641.152C481.909 640.427 482.187 639.339 482.187 637.888C482.187 636.437 481.909 635.349 481.355 634.624C480.8 633.856 480.032 633.472 479.051 633.472Z" fill="#1B1C37"/>
<path opacity="0.4" d="M434.147 469H380.813C373.436 469 367.48 474.911 367.48 482.2V530.689C367.48 537.978 373.436 543.889 380.813 543.889H384.191C387.747 543.889 391.125 545.267 393.613 547.756L401.213 555.267C404.68 558.689 410.325 558.689 413.791 555.267L421.391 547.756C423.88 545.267 427.302 543.889 430.813 543.889H434.147C441.525 543.889 447.48 537.978 447.48 530.689V482.2C447.48 474.911 441.525 469 434.147 469Z" fill="url(#paint1_linear_16_200)"/>
<path d="M452.959 544.811L444.847 546.728C443.028 547.171 441.602 548.547 441.208 550.367L439.488 557.594C438.553 561.527 433.538 562.757 430.933 559.659L416.232 542.746C415.052 541.369 415.691 539.206 417.461 538.763C426.163 536.649 433.981 531.782 439.733 524.849C440.668 523.718 442.339 523.571 443.372 524.603L454.287 535.518C458.023 539.255 456.696 543.926 452.959 544.811Z" fill="url(#paint2_linear_16_200)"/>
<path d="M361.755 544.811L369.868 546.728C371.687 547.171 373.113 548.547 373.506 550.367L375.227 557.594C376.161 561.527 381.176 562.757 383.782 559.659L398.483 542.746C399.663 541.369 399.024 539.206 397.254 538.763C388.551 536.649 380.734 531.782 374.981 524.849C374.047 523.718 372.375 523.571 371.343 524.603L360.428 535.518C356.691 539.255 358.019 543.926 361.755 544.811Z" fill="url(#paint3_linear_16_200)"/>
<path d="M407.48 463.833C388.453 463.833 373.063 479.222 373.063 498.25C373.063 505.379 375.178 511.918 378.816 517.376C384.126 525.242 392.533 530.798 402.318 532.224C403.989 532.519 405.71 532.667 407.48 532.667C409.25 532.667 410.971 532.519 412.643 532.224C422.427 530.798 430.834 525.242 436.144 517.376C439.783 511.918 441.897 505.379 441.897 498.25C441.897 479.222 426.508 463.833 407.48 463.833ZM422.525 497.168L418.444 501.249C417.756 501.937 417.363 503.265 417.608 504.248L418.788 509.312C419.723 513.295 417.608 514.868 414.068 512.754L409.152 509.853C408.267 509.312 406.792 509.312 405.907 509.853L400.99 512.754C397.45 514.819 395.336 513.295 396.27 509.312L397.45 504.248C397.647 503.314 397.303 501.937 396.614 501.249L392.435 497.168C390.026 494.759 390.813 492.35 394.156 491.809L399.417 490.924C400.302 490.777 401.334 489.99 401.728 489.203L404.628 483.402C406.202 480.255 408.758 480.255 410.332 483.402L413.233 489.203C413.626 489.99 414.658 490.777 415.593 490.924L420.853 491.809C424.148 492.35 424.934 494.759 422.525 497.168Z" fill="url(#paint4_linear_16_200)"/>
<path d="M1066.29 693.648C1066.29 694.992 1065.96 696.252 1065.32 697.428C1064.69 698.604 1063.7 699.552 1062.33 700.272C1060.98 700.992 1059.28 701.352 1057.22 701.352H1053V711H1047.96V685.872H1057.22C1059.16 685.872 1060.82 686.208 1062.18 686.88C1063.55 687.552 1064.57 688.476 1065.24 689.652C1065.94 690.828 1066.29 692.16 1066.29 693.648ZM1057 697.284C1058.39 697.284 1059.42 696.972 1060.1 696.348C1060.77 695.7 1061.1 694.8 1061.1 693.648C1061.1 691.2 1059.74 689.976 1057 689.976H1053V697.284H1057ZM1088.69 691.056V711H1083.62V708.48C1082.97 709.344 1082.12 710.028 1081.06 710.532C1080.03 711.012 1078.9 711.252 1077.68 711.252C1076.12 711.252 1074.74 710.928 1073.54 710.28C1072.34 709.608 1071.39 708.636 1070.69 707.364C1070.02 706.068 1069.69 704.532 1069.69 702.756V691.056H1074.73V702.036C1074.73 703.62 1075.12 704.844 1075.91 705.708C1076.71 706.548 1077.79 706.968 1079.15 706.968C1080.55 706.968 1081.64 706.548 1082.43 705.708C1083.22 704.844 1083.62 703.62 1083.62 702.036V691.056H1088.69ZM1104.72 690.768C1107.1 690.768 1109.02 691.524 1110.48 693.036C1111.94 694.524 1112.68 696.612 1112.68 699.3V711H1107.64V699.984C1107.64 698.4 1107.24 697.188 1106.45 696.348C1105.66 695.484 1104.58 695.052 1103.21 695.052C1101.82 695.052 1100.71 695.484 1099.9 696.348C1099.1 697.188 1098.71 698.4 1098.71 699.984V711H1093.67V691.056H1098.71V693.54C1099.38 692.676 1100.23 692.004 1101.26 691.524C1102.32 691.02 1103.47 690.768 1104.72 690.768ZM1123.34 695.196V704.844C1123.34 705.516 1123.49 706.008 1123.8 706.32C1124.14 706.608 1124.69 706.752 1125.46 706.752H1127.8V711H1124.63C1120.38 711 1118.26 708.936 1118.26 704.808V695.196H1115.88V691.056H1118.26V686.124H1123.34V691.056H1127.8V695.196H1123.34ZM1150.25 691.056V711H1145.18V708.48C1144.53 709.344 1143.68 710.028 1142.62 710.532C1141.59 711.012 1140.46 711.252 1139.24 711.252C1137.68 711.252 1136.3 710.928 1135.1 710.28C1133.9 709.608 1132.95 708.636 1132.25 707.364C1131.58 706.068 1131.25 704.532 1131.25 702.756V691.056H1136.29V702.036C1136.29 703.62 1136.68 704.844 1137.47 705.708C1138.27 706.548 1139.35 706.968 1140.71 706.968C1142.11 706.968 1143.2 706.548 1143.99 705.708C1144.78 704.844 1145.18 703.62 1145.18 702.036V691.056H1150.25ZM1153.93 700.956C1153.93 698.94 1154.33 697.152 1155.12 695.592C1155.93 694.032 1157.03 692.832 1158.39 691.992C1159.79 691.152 1161.33 690.732 1163.04 690.732C1164.53 690.732 1165.82 691.032 1166.93 691.632C1168.05 692.232 1168.95 692.988 1169.63 693.9V691.056H1174.7V711H1169.63V708.084C1168.98 709.02 1168.08 709.8 1166.93 710.424C1165.8 711.024 1164.49 711.324 1163 711.324C1161.32 711.324 1159.79 710.892 1158.39 710.028C1157.03 709.164 1155.93 707.952 1155.12 706.392C1154.33 704.808 1153.93 702.996 1153.93 700.956ZM1169.63 701.028C1169.63 699.804 1169.39 698.76 1168.91 697.896C1168.43 697.008 1167.78 696.336 1166.96 695.88C1166.15 695.4 1165.27 695.16 1164.33 695.16C1163.4 695.16 1162.53 695.388 1161.74 695.844C1160.95 696.3 1160.3 696.972 1159.8 697.86C1159.32 698.724 1159.08 699.756 1159.08 700.956C1159.08 702.156 1159.32 703.212 1159.8 704.124C1160.3 705.012 1160.95 705.696 1161.74 706.176C1162.56 706.656 1163.42 706.896 1164.33 706.896C1165.27 706.896 1166.15 706.668 1166.96 706.212C1167.78 705.732 1168.43 705.06 1168.91 704.196C1169.39 703.308 1169.63 702.252 1169.63 701.028ZM1184.66 684.36V711H1179.62V684.36H1184.66ZM1192.2 688.68C1191.31 688.68 1190.57 688.404 1189.97 687.852C1189.39 687.276 1189.1 686.568 1189.1 685.728C1189.1 684.888 1189.39 684.192 1189.97 683.64C1190.57 683.064 1191.31 682.776 1192.2 682.776C1193.09 682.776 1193.82 683.064 1194.4 683.64C1195 684.192 1195.3 684.888 1195.3 685.728C1195.3 686.568 1195 687.276 1194.4 687.852C1193.82 688.404 1193.09 688.68 1192.2 688.68ZM1194.68 691.056V711H1189.64V691.056H1194.68ZM1205.53 695.196V704.844C1205.53 705.516 1205.69 706.008 1206 706.32C1206.34 706.608 1206.89 706.752 1207.66 706.752H1210V711H1206.83C1202.58 711 1200.46 708.936 1200.46 704.808V695.196H1198.08V691.056H1200.46V686.124H1205.53V691.056H1210V695.196H1205.53ZM1232.7 691.056L1220.35 720.432H1214.99L1219.31 710.496L1211.32 691.056H1216.97L1222.12 704.988L1227.34 691.056H1232.7Z" fill="#5F6073"/>
<path d="M1062.21 611.456V601.28H1079.94V648H1068.54V611.456H1062.21ZM1087.42 624C1087.42 616.661 1088.83 610.88 1091.65 606.656C1094.51 602.432 1099.09 600.32 1105.41 600.32C1111.72 600.32 1116.29 602.432 1119.1 606.656C1121.96 610.88 1123.39 616.661 1123.39 624C1123.39 631.424 1121.96 637.248 1119.1 641.472C1116.29 645.696 1111.72 647.808 1105.41 647.808C1099.09 647.808 1094.51 645.696 1091.65 641.472C1088.83 637.248 1087.42 631.424 1087.42 624ZM1112.64 624C1112.64 619.691 1112.17 616.384 1111.23 614.08C1110.29 611.733 1108.35 610.56 1105.41 610.56C1102.46 610.56 1100.52 611.733 1099.58 614.08C1098.64 616.384 1098.17 619.691 1098.17 624C1098.17 626.901 1098.35 629.312 1098.69 631.232C1099.03 633.109 1099.71 634.645 1100.73 635.84C1101.8 636.992 1103.36 637.568 1105.41 637.568C1107.45 637.568 1108.99 636.992 1110.01 635.84C1111.08 634.645 1111.79 633.109 1112.13 631.232C1112.47 629.312 1112.64 626.901 1112.64 624ZM1129.17 624C1129.17 616.661 1130.58 610.88 1133.4 606.656C1136.26 602.432 1140.84 600.32 1147.16 600.32C1153.47 600.32 1158.04 602.432 1160.85 606.656C1163.71 610.88 1165.14 616.661 1165.14 624C1165.14 631.424 1163.71 637.248 1160.85 641.472C1158.04 645.696 1153.47 647.808 1147.16 647.808C1140.84 647.808 1136.26 645.696 1133.4 641.472C1130.58 637.248 1129.17 631.424 1129.17 624ZM1154.39 624C1154.39 619.691 1153.92 616.384 1152.98 614.08C1152.04 611.733 1150.1 610.56 1147.16 610.56C1144.21 610.56 1142.27 611.733 1141.33 614.08C1140.39 616.384 1139.92 619.691 1139.92 624C1139.92 626.901 1140.1 629.312 1140.44 631.232C1140.78 633.109 1141.46 634.645 1142.48 635.84C1143.55 636.992 1145.11 637.568 1147.16 637.568C1149.2 637.568 1150.74 636.992 1151.76 635.84C1152.83 634.645 1153.54 633.109 1153.88 631.232C1154.22 629.312 1154.39 626.901 1154.39 624ZM1170.03 613.056C1170.03 609.6 1171.01 606.933 1172.97 605.056C1174.98 603.179 1177.56 602.24 1180.71 602.24C1183.87 602.24 1186.43 603.179 1188.39 605.056C1190.36 606.933 1191.34 609.6 1191.34 613.056C1191.34 616.512 1190.36 619.179 1188.39 621.056C1186.43 622.933 1183.87 623.872 1180.71 623.872C1177.56 623.872 1174.98 622.933 1172.97 621.056C1171.01 619.179 1170.03 616.512 1170.03 613.056ZM1213.48 602.944L1188.84 648H1178.28L1202.92 602.944H1213.48ZM1180.65 608.64C1178.6 608.64 1177.58 610.112 1177.58 613.056C1177.58 615.957 1178.6 617.408 1180.65 617.408C1181.63 617.408 1182.4 617.045 1182.95 616.32C1183.51 615.595 1183.79 614.507 1183.79 613.056C1183.79 610.112 1182.74 608.64 1180.65 608.64ZM1200.49 637.888C1200.49 634.432 1201.47 631.765 1203.43 629.888C1205.4 628.011 1207.96 627.072 1211.11 627.072C1214.27 627.072 1216.83 628.011 1218.79 629.888C1220.76 631.765 1221.74 634.432 1221.74 637.888C1221.74 641.344 1220.76 644.011 1218.79 645.888C1216.83 647.765 1214.27 648.704 1211.11 648.704C1207.96 648.704 1205.4 647.765 1203.43 645.888C1201.47 644.011 1200.49 641.344 1200.49 637.888ZM1211.05 633.472C1210.07 633.472 1209.3 633.835 1208.75 634.56C1208.23 635.285 1207.98 636.395 1207.98 637.888C1207.98 640.789 1209 642.24 1211.05 642.24C1212.03 642.24 1212.8 641.877 1213.35 641.152C1213.91 640.427 1214.19 639.339 1214.19 637.888C1214.19 636.437 1213.91 635.349 1213.35 634.624C1212.8 633.856 1212.03 633.472 1211.05 633.472Z" fill="#1B1C37"/>
<path opacity="0.4" d="M1166.15 469H1112.81C1105.44 469 1099.48 474.911 1099.48 482.2V530.689C1099.48 537.978 1105.44 543.889 1112.81 543.889H1116.19C1119.75 543.889 1123.12 545.267 1125.61 547.756L1133.21 555.267C1136.68 558.689 1142.32 558.689 1145.79 555.267L1153.39 547.756C1155.88 545.267 1159.3 543.889 1162.81 543.889H1166.15C1173.52 543.889 1179.48 537.978 1179.48 530.689V482.2C1179.48 474.911 1173.52 469 1166.15 469Z" fill="url(#paint5_linear_16_200)"/>
<path d="M1162.83 471.503V463.833C1162.83 461.817 1161.16 460.146 1159.15 460.146C1157.13 460.146 1155.46 461.817 1155.46 463.833V471.208H1123.5V463.833C1123.5 461.817 1121.83 460.146 1119.81 460.146C1117.8 460.146 1116.13 461.817 1116.13 463.833V471.503C1102.85 472.732 1096.41 480.648 1095.43 492.399C1095.33 493.825 1096.51 495.005 1097.89 495.005H1181.08C1182.5 495.005 1183.68 493.776 1183.53 492.399C1182.55 480.648 1176.11 472.732 1162.83 471.503Z" fill="url(#paint6_linear_16_200)"/>
<path d="M1173.9 527.75C1163.03 527.75 1154.23 536.551 1154.23 547.417C1154.23 551.104 1155.26 554.595 1157.08 557.545C1160.47 563.248 1166.72 567.083 1173.9 567.083C1181.08 567.083 1187.32 563.248 1190.71 557.545C1192.53 554.595 1193.56 551.104 1193.56 547.417C1193.56 536.551 1184.76 527.75 1173.9 527.75ZM1184.07 545.302L1173.6 554.988C1172.91 555.628 1171.98 555.972 1171.09 555.972C1170.16 555.972 1169.23 555.628 1168.49 554.89L1163.62 550.023C1162.2 548.597 1162.2 546.237 1163.62 544.811C1165.05 543.385 1167.41 543.385 1168.83 544.811L1171.19 547.171L1179.06 539.894C1180.53 538.517 1182.89 538.616 1184.27 540.091C1185.65 541.566 1185.55 543.877 1184.07 545.302Z" fill="url(#paint7_linear_16_200)"/>
<path d="M1178.81 502.38H1100.15C1097.44 502.38 1095.23 504.592 1095.23 507.296V537.583C1095.23 552.333 1102.61 562.166 1119.81 562.166H1144.05C1147.45 562.166 1149.81 558.872 1148.72 555.676C1147.74 552.825 1146.9 549.678 1146.9 547.416C1146.9 532.519 1159.05 520.375 1173.95 520.375C1175.37 520.375 1176.8 520.473 1178.17 520.719C1181.12 521.161 1183.78 518.851 1183.78 515.901V507.346C1183.73 504.592 1181.52 502.38 1178.81 502.38ZM1125.76 543.532C1124.83 544.417 1123.55 544.958 1122.27 544.958C1120.99 544.958 1119.72 544.417 1118.78 543.532C1117.9 542.598 1117.36 541.32 1117.36 540.041C1117.36 538.763 1117.9 537.485 1118.78 536.551C1119.27 536.108 1119.76 535.764 1120.4 535.518C1122.22 534.731 1124.39 535.174 1125.76 536.551C1126.65 537.485 1127.19 538.763 1127.19 540.041C1127.19 541.32 1126.65 542.598 1125.76 543.532ZM1125.76 526.324C1125.52 526.521 1125.27 526.717 1125.03 526.914C1124.73 527.111 1124.44 527.258 1124.14 527.356C1123.85 527.504 1123.55 527.602 1123.26 527.651C1122.91 527.701 1122.57 527.75 1122.27 527.75C1120.99 527.75 1119.72 527.209 1118.78 526.324C1117.9 525.39 1117.36 524.111 1117.36 522.833C1117.36 521.555 1117.9 520.276 1118.78 519.342C1119.91 518.211 1121.63 517.671 1123.26 518.015C1123.55 518.064 1123.85 518.162 1124.14 518.31C1124.44 518.408 1124.73 518.556 1125.03 518.752C1125.27 518.949 1125.52 519.146 1125.76 519.342C1126.65 520.276 1127.19 521.555 1127.19 522.833C1127.19 524.111 1126.65 525.39 1125.76 526.324ZM1142.97 526.324C1142.04 527.209 1140.76 527.75 1139.48 527.75C1138.2 527.75 1136.92 527.209 1135.99 526.324C1135.1 525.39 1134.56 524.111 1134.56 522.833C1134.56 521.555 1135.1 520.276 1135.99 519.342C1137.86 517.523 1141.15 517.523 1142.97 519.342C1143.86 520.276 1144.4 521.555 1144.4 522.833C1144.4 524.111 1143.86 525.39 1142.97 526.324Z" fill="url(#paint8_linear_16_200)"/>
</g>
<g filter="url(#filter1_d_16_200)">
<rect x="594" y="268" width="323.948" height="443" rx="60" fill="url(#paint9_linear_16_200)" shape-rendering="crispEdges"/>
<path d="M655.234 572.4C655.234 569.928 655.786 567.72 656.89 565.776C658.018 563.808 659.542 562.284 661.462 561.204C663.406 560.1 665.578 559.548 667.978 559.548C670.786 559.548 673.246 560.268 675.358 561.708C677.47 563.148 678.946 565.14 679.786 567.684H673.99C673.414 566.484 672.598 565.584 671.542 564.984C670.51 564.384 669.31 564.084 667.942 564.084C666.478 564.084 665.17 564.432 664.018 565.128C662.89 565.8 662.002 566.76 661.354 568.008C660.73 569.256 660.418 570.72 660.418 572.4C660.418 574.056 660.73 575.52 661.354 576.792C662.002 578.04 662.89 579.012 664.018 579.708C665.17 580.38 666.478 580.716 667.942 580.716C669.31 580.716 670.51 580.416 671.542 579.816C672.598 579.192 673.414 578.28 673.99 577.08H679.786C678.946 579.648 677.47 581.652 675.358 583.092C673.27 584.508 670.81 585.216 667.978 585.216C665.578 585.216 663.406 584.676 661.462 583.596C659.542 582.492 658.018 580.968 656.89 579.024C655.786 577.08 655.234 574.872 655.234 572.4ZM692.947 585.324C691.027 585.324 689.299 584.904 687.763 584.064C686.227 583.2 685.015 581.988 684.127 580.428C683.263 578.868 682.831 577.068 682.831 575.028C682.831 572.988 683.275 571.188 684.163 569.628C685.075 568.068 686.311 566.868 687.871 566.028C689.431 565.164 691.171 564.732 693.091 564.732C695.011 564.732 696.751 565.164 698.311 566.028C699.871 566.868 701.095 568.068 701.983 569.628C702.895 571.188 703.351 572.988 703.351 575.028C703.351 577.068 702.883 578.868 701.947 580.428C701.035 581.988 699.787 583.2 698.203 584.064C696.643 584.904 694.891 585.324 692.947 585.324ZM692.947 580.932C693.859 580.932 694.711 580.716 695.503 580.284C696.319 579.828 696.967 579.156 697.447 578.268C697.927 577.38 698.167 576.3 698.167 575.028C698.167 573.132 697.663 571.68 696.655 570.672C695.671 569.64 694.459 569.124 693.019 569.124C691.579 569.124 690.367 569.64 689.383 570.672C688.423 571.68 687.943 573.132 687.943 575.028C687.943 576.924 688.411 578.388 689.347 579.42C690.307 580.428 691.507 580.932 692.947 580.932ZM712.088 558.36V585H707.048V558.36H712.088ZM725.924 585.324C724.004 585.324 722.276 584.904 720.74 584.064C719.204 583.2 717.992 581.988 717.104 580.428C716.24 578.868 715.808 577.068 715.808 575.028C715.808 572.988 716.252 571.188 717.14 569.628C718.052 568.068 719.288 566.868 720.848 566.028C722.408 565.164 724.148 564.732 726.068 564.732C727.988 564.732 729.728 565.164 731.288 566.028C732.848 566.868 734.072 568.068 734.96 569.628C735.872 571.188 736.328 572.988 736.328 575.028C736.328 577.068 735.86 578.868 734.924 580.428C734.012 581.988 732.764 583.2 731.18 584.064C729.62 584.904 727.868 585.324 725.924 585.324ZM725.924 580.932C726.836 580.932 727.688 580.716 728.48 580.284C729.296 579.828 729.944 579.156 730.424 578.268C730.904 577.38 731.144 576.3 731.144 575.028C731.144 573.132 730.64 571.68 729.632 570.672C728.648 569.64 727.436 569.124 725.996 569.124C724.556 569.124 723.344 569.64 722.36 570.672C721.4 571.68 720.92 573.132 720.92 575.028C720.92 576.924 721.388 578.388 722.324 579.42C723.284 580.428 724.484 580.932 725.924 580.932ZM764.793 564.768C767.241 564.768 769.209 565.524 770.697 567.036C772.209 568.524 772.965 570.612 772.965 573.3V585H767.925V573.984C767.925 572.424 767.529 571.236 766.737 570.42C765.945 569.58 764.865 569.16 763.497 569.16C762.129 569.16 761.037 569.58 760.221 570.42C759.429 571.236 759.033 572.424 759.033 573.984V585H753.993V573.984C753.993 572.424 753.597 571.236 752.805 570.42C752.013 569.58 750.933 569.16 749.565 569.16C748.173 569.16 747.069 569.58 746.253 570.42C745.461 571.236 745.065 572.424 745.065 573.984V585H740.025V565.056H745.065V567.468C745.713 566.628 746.541 565.968 747.549 565.488C748.581 565.008 749.709 564.768 750.933 564.768C752.493 564.768 753.885 565.104 755.109 565.776C756.333 566.424 757.281 567.36 757.953 568.584C758.601 567.432 759.537 566.508 760.761 565.812C762.009 565.116 763.353 564.768 764.793 564.768ZM782.787 567.972C783.435 567.012 784.323 566.232 785.451 565.632C786.603 565.032 787.911 564.732 789.375 564.732C791.079 564.732 792.615 565.152 793.983 565.992C795.375 566.832 796.467 568.032 797.259 569.592C798.075 571.128 798.483 572.916 798.483 574.956C798.483 576.996 798.075 578.808 797.259 580.392C796.467 581.952 795.375 583.164 793.983 584.028C792.615 584.892 791.079 585.324 789.375 585.324C787.887 585.324 786.579 585.036 785.451 584.46C784.347 583.86 783.459 583.092 782.787 582.156V585H777.747V558.36H782.787V567.972ZM793.335 574.956C793.335 573.756 793.083 572.724 792.579 571.86C792.099 570.972 791.451 570.3 790.635 569.844C789.843 569.388 788.979 569.16 788.043 569.16C787.131 569.16 786.267 569.4 785.451 569.88C784.659 570.336 784.011 571.008 783.507 571.896C783.027 572.784 782.787 573.828 782.787 575.028C782.787 576.228 783.027 577.272 783.507 578.16C784.011 579.048 784.659 579.732 785.451 580.212C786.267 580.668 787.131 580.896 788.043 580.896C788.979 580.896 789.843 580.656 790.635 580.176C791.451 579.696 792.099 579.012 792.579 578.124C793.083 577.236 793.335 576.18 793.335 574.956ZM804.702 562.68C803.814 562.68 803.07 562.404 802.47 561.852C801.894 561.276 801.606 560.568 801.606 559.728C801.606 558.888 801.894 558.192 802.47 557.64C803.07 557.064 803.814 556.776 804.702 556.776C805.59 556.776 806.322 557.064 806.898 557.64C807.498 558.192 807.798 558.888 807.798 559.728C807.798 560.568 807.498 561.276 806.898 561.852C806.322 562.404 805.59 562.68 804.702 562.68ZM807.186 565.056V585H802.146V565.056H807.186ZM810.869 574.956C810.869 572.94 811.265 571.152 812.057 569.592C812.873 568.032 813.965 566.832 815.333 565.992C816.725 565.152 818.273 564.732 819.977 564.732C821.465 564.732 822.761 565.032 823.865 565.632C824.993 566.232 825.893 566.988 826.565 567.9V565.056H831.641V585H826.565V582.084C825.917 583.02 825.017 583.8 823.865 584.424C822.737 585.024 821.429 585.324 819.941 585.324C818.261 585.324 816.725 584.892 815.333 584.028C813.965 583.164 812.873 581.952 812.057 580.392C811.265 578.808 810.869 576.996 810.869 574.956ZM826.565 575.028C826.565 573.804 826.325 572.76 825.845 571.896C825.365 571.008 824.717 570.336 823.901 569.88C823.085 569.4 822.209 569.16 821.273 569.16C820.337 569.16 819.473 569.388 818.681 569.844C817.889 570.3 817.241 570.972 816.737 571.86C816.257 572.724 816.017 573.756 816.017 574.956C816.017 576.156 816.257 577.212 816.737 578.124C817.241 579.012 817.889 579.696 818.681 580.176C819.497 580.656 820.361 580.896 821.273 580.896C822.209 580.896 823.085 580.668 823.901 580.212C824.717 579.732 825.365 579.06 825.845 578.196C826.325 577.308 826.565 576.252 826.565 575.028ZM847.616 564.768C849.992 564.768 851.912 565.524 853.376 567.036C854.84 568.524 855.572 570.612 855.572 573.3V585H850.532V573.984C850.532 572.4 850.136 571.188 849.344 570.348C848.552 569.484 847.472 569.052 846.104 569.052C844.712 569.052 843.608 569.484 842.792 570.348C842 571.188 841.604 572.4 841.604 573.984V585H836.564V565.056H841.604V567.54C842.276 566.676 843.128 566.004 844.16 565.524C845.216 565.02 846.368 564.768 847.616 564.768Z" fill="#EDEEFF"/>
<path d="M678.702 485.456V475.28H696.43V522H685.038V485.456H678.702ZM703.917 498C703.917 490.661 705.325 484.88 708.141 480.656C710.999 476.432 715.586 474.32 721.901 474.32C728.215 474.32 732.781 476.432 735.597 480.656C738.455 484.88 739.885 490.661 739.885 498C739.885 505.424 738.455 511.248 735.597 515.472C732.781 519.696 728.215 521.808 721.901 521.808C715.586 521.808 710.999 519.696 708.141 515.472C705.325 511.248 703.917 505.424 703.917 498ZM729.133 498C729.133 493.691 728.663 490.384 727.725 488.08C726.786 485.733 724.845 484.56 721.901 484.56C718.957 484.56 717.015 485.733 716.077 488.08C715.138 490.384 714.669 493.691 714.669 498C714.669 500.901 714.839 503.312 715.181 505.232C715.522 507.109 716.205 508.645 717.229 509.84C718.295 510.992 719.853 511.568 721.901 511.568C723.949 511.568 725.485 510.992 726.509 509.84C727.575 508.645 728.279 507.109 728.621 505.232C728.962 503.312 729.133 500.901 729.133 498ZM745.667 498C745.667 490.661 747.075 484.88 749.891 480.656C752.749 476.432 757.336 474.32 763.651 474.32C769.965 474.32 774.531 476.432 777.347 480.656C780.205 484.88 781.635 490.661 781.635 498C781.635 505.424 780.205 511.248 777.347 515.472C774.531 519.696 769.965 521.808 763.651 521.808C757.336 521.808 752.749 519.696 749.891 515.472C747.075 511.248 745.667 505.424 745.667 498ZM770.883 498C770.883 493.691 770.413 490.384 769.475 488.08C768.536 485.733 766.595 484.56 763.651 484.56C760.707 484.56 758.765 485.733 757.827 488.08C756.888 490.384 756.419 493.691 756.419 498C756.419 500.901 756.589 503.312 756.931 505.232C757.272 507.109 757.955 508.645 758.979 509.84C760.045 510.992 761.603 511.568 763.651 511.568C765.699 511.568 767.235 510.992 768.259 509.84C769.325 508.645 770.029 507.109 770.371 505.232C770.712 503.312 770.883 500.901 770.883 498ZM786.521 487.056C786.521 483.6 787.502 480.933 789.465 479.056C791.47 477.179 794.051 476.24 797.209 476.24C800.366 476.24 802.926 477.179 804.889 479.056C806.851 480.933 807.833 483.6 807.833 487.056C807.833 490.512 806.851 493.179 804.889 495.056C802.926 496.933 800.366 497.872 797.209 497.872C794.051 497.872 791.47 496.933 789.465 495.056C787.502 493.179 786.521 490.512 786.521 487.056ZM829.977 476.944L805.337 522H794.777L819.417 476.944H829.977ZM797.145 482.64C795.097 482.64 794.073 484.112 794.073 487.056C794.073 489.957 795.097 491.408 797.145 491.408C798.126 491.408 798.894 491.045 799.449 490.32C800.003 489.595 800.281 488.507 800.281 487.056C800.281 484.112 799.235 482.64 797.145 482.64ZM816.985 511.888C816.985 508.432 817.966 505.765 819.929 503.888C821.891 502.011 824.451 501.072 827.609 501.072C830.766 501.072 833.326 502.011 835.289 503.888C837.251 505.765 838.233 508.432 838.233 511.888C838.233 515.344 837.251 518.011 835.289 519.888C833.326 521.765 830.766 522.704 827.609 522.704C824.451 522.704 821.891 521.765 819.929 519.888C817.966 518.011 816.985 515.344 816.985 511.888ZM827.545 507.472C826.563 507.472 825.795 507.835 825.241 508.56C824.729 509.285 824.473 510.395 824.473 511.888C824.473 514.789 825.497 516.24 827.545 516.24C828.526 516.24 829.294 515.877 829.849 515.152C830.403 514.427 830.681 513.339 830.681 511.888C830.681 510.437 830.403 509.349 829.849 508.624C829.294 507.856 828.526 507.472 827.545 507.472Z" fill="white"/>
<path opacity="0.4" d="M782.641 343H729.308C721.93 343 715.974 348.911 715.974 356.2V404.689C715.974 411.978 721.93 417.889 729.308 417.889H732.685C736.241 417.889 739.619 419.267 742.108 421.756L749.708 429.267C753.174 432.689 758.819 432.689 762.285 429.267L769.885 421.756C772.374 419.267 775.797 417.889 779.308 417.889H782.641C790.019 417.889 795.974 411.978 795.974 404.689V356.2C795.974 348.911 790.019 343 782.641 343Z" fill="url(#paint10_linear_16_200)"/>
<path d="M801.453 418.811L793.341 420.728C791.522 421.171 790.096 422.547 789.703 424.367L787.982 431.594C787.048 435.527 782.033 436.757 779.427 433.659L764.726 416.746C763.546 415.369 764.185 413.206 765.955 412.763C774.658 410.649 782.475 405.782 788.228 398.849C789.162 397.718 790.833 397.571 791.866 398.603L802.781 409.518C806.518 413.255 805.19 417.926 801.453 418.811Z" fill="url(#paint11_linear_16_200)"/>
<path d="M710.25 418.811L718.362 420.728C720.181 421.171 721.607 422.547 722 424.367L723.721 431.594C724.655 435.527 729.67 436.757 732.276 433.659L746.977 416.746C748.157 415.369 747.518 413.206 745.748 412.763C737.045 410.649 729.228 405.782 723.475 398.849C722.541 397.718 720.87 397.571 719.837 398.603L708.922 409.518C705.185 413.255 706.513 417.926 710.25 418.811Z" fill="url(#paint12_linear_16_200)"/>
<path d="M755.974 337.833C736.947 337.833 721.558 353.223 721.558 372.25C721.558 379.379 723.672 385.918 727.31 391.376C732.62 399.243 741.028 404.798 750.812 406.224C752.483 406.519 754.204 406.667 755.974 406.667C757.744 406.667 759.465 406.519 761.137 406.224C770.921 404.798 779.328 399.243 784.638 391.376C788.277 385.918 790.391 379.379 790.391 372.25C790.391 353.223 775.002 337.833 755.974 337.833ZM771.019 371.168L766.938 375.249C766.25 375.938 765.857 377.265 766.103 378.248L767.283 383.313C768.217 387.295 766.103 388.868 762.563 386.754L757.646 383.853C756.761 383.313 755.286 383.313 754.401 383.853L749.484 386.754C745.944 388.819 743.83 387.295 744.764 383.313L745.944 378.248C746.141 377.314 745.797 375.938 745.108 375.249L740.929 371.168C738.52 368.759 739.307 366.35 742.65 365.809L747.911 364.924C748.796 364.777 749.828 363.99 750.222 363.203L753.123 357.402C754.696 354.255 757.253 354.255 758.826 357.402L761.727 363.203C762.12 363.99 763.153 364.777 764.087 364.924L769.348 365.809C772.642 366.35 773.428 368.759 771.019 371.168Z" fill="url(#paint13_linear_16_200)"/>
</g>
<mask id="mask0_16_200" style="mask-type:alpha" maskUnits="userSpaceOnUse" x="594" y="268" width="325" height="223">
<path d="M594 388C594 331.431 594 303.147 611.574 285.574C629.147 268 657.432 268 714 268H798C854.569 268 882.853 268 900.427 285.574C918 303.147 918 331.431 918 388V433C918 460.341 918 474.012 909.506 482.506C901.012 491 887.342 491 860 491H652C624.659 491 610.988 491 602.494 482.506C594 474.012 594 460.341 594 433V388Z" fill="#C4C4C4"/>
</mask>
<g mask="url(#mask0_16_200)">
<path d="M224.205 481.691C287.393 406.433 455.169 279.82 620.772 375.431C786.376 471.042 930.675 350.72 982.124 278.607C1037.46 210.034 1186.29 94.9131 1338.88 183.014" stroke="#F92323" stroke-width="70" stroke-linecap="round" stroke-linejoin="round"/>
<path d="M202.636 423.05C265.901 347.7 433.883 220.931 599.689 316.66C765.495 412.388 909.971 291.918 961.483 219.717C1016.89 151.06 1165.9 35.798 1318.68 124.007" stroke="#4E6AFF" stroke-width="70" stroke-linecap="round" stroke-linejoin="round"/>
<path d="M201.119 373.677C264.307 298.419 432.083 171.806 597.687 267.417C763.29 363.028 907.589 242.706 959.038 170.593C1014.38 102.02 1163.2 -13.1011 1315.8 75" stroke="#F9D423" stroke-width="70" stroke-linecap="round" stroke-linejoin="round"/>
</g>
<ellipse cx="1339.58" cy="841.212" rx="12.579" ry="12.2122" fill="#EDEEFF"/>
<ellipse cx="1383.43" cy="841.212" rx="12.579" ry="12.2122" fill="#EDEEFF"/>
<ellipse cx="1426.55" cy="841.212" rx="12.579" ry="12.2122" fill="#EDEEFF"/>
<ellipse cx="1471.12" cy="841.212" rx="12.579" ry="12.2122" fill="#EDEEFF"/>
<ellipse cx="1514.25" cy="841.212" rx="12.579" ry="12.2122" fill="#EDEEFF"/>
<ellipse cx="1339.58" cy="876.802" rx="12.579" ry="12.2122" fill="#EDEEFF"/>
<ellipse cx="1383.43" cy="876.802" rx="12.579" ry="12.2122" fill="#EDEEFF"/>
<ellipse cx="1426.55" cy="876.802" rx="12.579" ry="12.2122" fill="#EDEEFF"/>
<ellipse cx="1471.12" cy="876.802" rx="12.579" ry="12.2122" fill="#EDEEFF"/>
<ellipse cx="1514.25" cy="876.802" rx="12.579" ry="12.2122" fill="#EDEEFF"/>
<ellipse cx="1339.58" cy="912.392" rx="12.579" ry="12.2122" fill="#EDEEFF"/>
<ellipse cx="1383.43" cy="912.392" rx="12.579" ry="12.2122" fill="#EDEEFF"/>
<ellipse cx="1426.55" cy="912.392" rx="12.579" ry="12.2122" fill="#EDEEFF"/>
<ellipse cx="1471.12" cy="912.392" rx="12.579" ry="12.2122" fill="#EDEEFF"/>
<ellipse cx="1514.25" cy="912.392" rx="12.579" ry="12.2122" fill="#EDEEFF"/>
<path fill-rule="evenodd" clip-rule="evenodd" d="M1404.63 396.589C1411.04 397.243 1417.38 397.946 1423.81 398.412C1425.19 398.518 1426.39 397.487 1426.49 396.114C1426.59 394.731 1425.55 393.531 1424.18 393.43C1417.79 392.962 1411.5 392.266 1405.14 391.615C1403.76 391.479 1402.53 392.48 1402.39 393.843C1402.26 395.219 1403.25 396.453 1404.63 396.589Z" fill="white"/>
<path fill-rule="evenodd" clip-rule="evenodd" d="M1382.83 347.943C1399.47 336.201 1415.51 323.624 1431.89 311.534C1433 310.709 1433.23 309.146 1432.42 308.04C1431.59 306.928 1430.04 306.687 1428.92 307.507C1412.57 319.581 1396.56 332.142 1379.95 343.855C1378.82 344.656 1378.56 346.213 1379.35 347.34C1380.15 348.472 1381.71 348.736 1382.83 347.943Z" fill="white"/>
<path fill-rule="evenodd" clip-rule="evenodd" d="M1321.78 307.151C1327.92 291.064 1333.61 274.78 1339.93 258.761C1340.42 257.479 1339.79 256.03 1338.52 255.523C1337.23 255.011 1335.78 255.65 1335.27 256.927C1328.95 272.968 1323.25 289.27 1317.11 305.379C1316.62 306.667 1317.26 308.113 1318.55 308.602C1319.85 309.096 1321.29 308.448 1321.78 307.151Z" fill="white"/>
<path d="M627.808 120.488H610.016L607.072 129H597.664L613.728 84.264H624.16L640.224 129H630.752L627.808 120.488ZM625.376 113.32L618.912 94.632L612.448 113.32H625.376ZM655.189 98.728C656.341 97.0213 657.919 95.6347 659.925 94.568C661.973 93.5013 664.298 92.968 666.901 92.968C669.93 92.968 672.661 93.7147 675.093 95.208C677.567 96.7013 679.509 98.8347 680.917 101.608C682.367 104.339 683.093 107.517 683.093 111.144C683.093 114.771 682.367 117.992 680.917 120.808C679.509 123.581 677.567 125.736 675.093 127.272C672.661 128.808 669.93 129.576 666.901 129.576C664.255 129.576 661.93 129.064 659.925 128.04C657.962 126.973 656.383 125.608 655.189 123.944V129H646.229V81.64H655.189V98.728ZM673.941 111.144C673.941 109.011 673.493 107.176 672.597 105.64C671.743 104.061 670.591 102.867 669.141 102.056C667.733 101.245 666.197 100.84 664.533 100.84C662.911 100.84 661.375 101.267 659.925 102.12C658.517 102.931 657.365 104.125 656.469 105.704C655.615 107.283 655.189 109.139 655.189 111.272C655.189 113.405 655.615 115.261 656.469 116.84C657.365 118.419 658.517 119.635 659.925 120.488C661.375 121.299 662.911 121.704 664.533 121.704C666.197 121.704 667.733 121.277 669.141 120.424C670.591 119.571 671.743 118.355 672.597 116.776C673.493 115.197 673.941 113.32 673.941 111.144ZM705.348 129.576C701.934 129.576 698.862 128.829 696.132 127.336C693.401 125.8 691.246 123.645 689.668 120.872C688.132 118.099 687.364 114.899 687.364 111.272C687.364 107.645 688.153 104.445 689.732 101.672C691.353 98.8987 693.55 96.7653 696.324 95.272C699.097 93.736 702.19 92.968 705.604 92.968C709.017 92.968 712.11 93.736 714.884 95.272C717.657 96.7653 719.833 98.8987 721.412 101.672C723.033 104.445 723.844 107.645 723.844 111.272C723.844 114.899 723.012 118.099 721.347 120.872C719.726 123.645 717.508 125.8 714.692 127.336C711.918 128.829 708.804 129.576 705.348 129.576ZM705.348 121.768C706.969 121.768 708.484 121.384 709.892 120.616C711.342 119.805 712.494 118.611 713.348 117.032C714.201 115.453 714.628 113.533 714.628 111.272C714.628 107.901 713.732 105.32 711.94 103.528C710.19 101.693 708.036 100.776 705.476 100.776C702.916 100.776 700.761 101.693 699.012 103.528C697.305 105.32 696.452 107.901 696.452 111.272C696.452 114.643 697.284 117.245 698.948 119.08C700.654 120.872 702.788 121.768 705.348 121.768ZM763.888 93.544V129H754.864V124.52C753.712 126.056 752.197 127.272 750.32 128.168C748.485 129.021 746.48 129.448 744.304 129.448C741.531 129.448 739.077 128.872 736.944 127.72C734.811 126.525 733.125 124.797 731.888 122.536C730.693 120.232 730.096 117.501 730.096 114.344V93.544H739.056V113.064C739.056 115.88 739.76 118.056 741.168 119.592C742.576 121.085 744.496 121.832 746.928 121.832C749.403 121.832 751.344 121.085 752.752 119.592C754.16 118.056 754.864 115.88 754.864 113.064V93.544H763.888ZM783.161 100.904V118.056C783.161 119.251 783.438 120.125 783.993 120.68C784.59 121.192 785.571 121.448 786.937 121.448H791.097V129H785.465C777.913 129 774.137 125.331 774.137 117.992V100.904H769.913V93.544H774.137V84.776H783.161V93.544H791.097V100.904H783.161ZM861.495 84.328V129H852.535V99.944L840.567 129H833.783L821.751 99.944V129H812.791V84.328H822.967L837.175 117.544L851.383 84.328H861.495ZM903.314 110.504C903.314 111.784 903.228 112.936 903.058 113.96H877.138C877.351 116.52 878.247 118.525 879.826 119.976C881.404 121.427 883.346 122.152 885.65 122.152C888.978 122.152 891.346 120.723 892.754 117.864H902.418C901.394 121.277 899.431 124.093 896.53 126.312C893.628 128.488 890.066 129.576 885.842 129.576C882.428 129.576 879.356 128.829 876.626 127.336C873.938 125.8 871.826 123.645 870.29 120.872C868.796 118.099 868.049 114.899 868.049 111.272C868.049 107.603 868.796 104.381 870.29 101.608C871.783 98.8347 873.874 96.7013 876.562 95.208C879.25 93.7147 882.343 92.968 885.842 92.968C889.212 92.968 892.22 93.6933 894.866 95.144C897.554 96.5947 899.623 98.664 901.074 101.352C902.567 103.997 903.314 107.048 903.314 110.504ZM894.034 107.944C893.991 105.64 893.159 103.805 891.538 102.44C889.916 101.032 887.932 100.328 885.586 100.328C883.367 100.328 881.49 101.011 879.954 102.376C878.46 103.699 877.543 105.555 877.202 107.944H894.034Z" fill="white"/>
<defs>
<filter id="filter0_d_16_200" x="69.0002" y="326" width="1382.96" height="547" filterUnits="userSpaceOnUse" color-interpolation-filters="sRGB">
<feFlood flood-opacity="0" result="BackgroundImageFix"/>
<feColorMatrix in="SourceAlpha" type="matrix" values="0 0 0 0 0 0 0 0 0 0 0 0 0 0 0 0 0 0 127 0" result="hardAlpha"/>
<feOffset dx="4" dy="4"/>
<feGaussianBlur stdDeviation="46"/>
<feComposite in2="hardAlpha" operator="out"/>
<feColorMatrix type="matrix" values="0 0 0 0 0.458824 0 0 0 0 0.47451 0 0 0 0 1 0 0 0 0.18 0"/>
<feBlend mode="normal" in2="BackgroundImageFix" result="effect1_dropShadow_16_200"/>
<feBlend mode="normal" in="SourceGraphic" in2="effect1_dropShadow_16_200" result="shape"/>
</filter>
<filter id="filter1_d_16_200" x="459" y="97" width="673.948" height="793" filterUnits="userSpaceOnUse" color-interpolation-filters="sRGB">
<feFlood flood-opacity="0" result="BackgroundImageFix"/>
<feColorMatrix in="SourceAlpha" type="matrix" values="0 0 0 0 0 0 0 0 0 0 0 0 0 0 0 0 0 0 127 0" result="hardAlpha"/>
<feOffset dx="40" dy="4"/>
<feGaussianBlur stdDeviation="87.5"/>
<feComposite in2="hardAlpha" operator="out"/>
<feColorMatrix type="matrix" values="0 0 0 0 0.458824 0 0 0 0 0.47451 0 0 0 0 1 0 0 0 0.3 0"/>
<feBlend mode="normal" in2="BackgroundImageFix" result="effect1_dropShadow_16_200"/>
<feBlend mode="normal" in="SourceGraphic" in2="effect1_dropShadow_16_200" result="shape"/>
</filter>
<radialGradient id="paint0_radial_16_200" cx="0" cy="0" r="1" gradientUnits="userSpaceOnUse" gradientTransform="translate(756.123 590.189) rotate(90) scale(589.19 741.123)">
<stop stop-color="white"/>
<stop offset="1" stop-color="white" stop-opacity="0"/>
</radialGradient>
<linearGradient id="paint1_linear_16_200" x1="367.48" y1="513.417" x2="447.48" y2="513.417" gradientUnits="userSpaceOnUse">
<stop stop-color="#B224EF"/>
<stop offset="1" stop-color="#7579FF"/>
</linearGradient>
<linearGradient id="paint2_linear_16_200" x1="415.632" y1="542.657" x2="456.512" y2="542.657" gradientUnits="userSpaceOnUse">
<stop stop-color="#B224EF"/>
<stop offset="1" stop-color="#7579FF"/>
</linearGradient>
<linearGradient id="paint3_linear_16_200" x1="358.202" y1="542.657" x2="399.083" y2="542.657" gradientUnits="userSpaceOnUse">
<stop stop-color="#B224EF"/>
<stop offset="1" stop-color="#7579FF"/>
</linearGradient>
<linearGradient id="paint4_linear_16_200" x1="373.063" y1="498.25" x2="441.897" y2="498.25" gradientUnits="userSpaceOnUse">
<stop stop-color="#B224EF"/>
<stop offset="1" stop-color="#7579FF"/>
</linearGradient>
<linearGradient id="paint5_linear_16_200" x1="1099.48" y1="513.417" x2="1179.48" y2="513.417" gradientUnits="userSpaceOnUse">
<stop stop-color="#B224EF"/>
<stop offset="1" stop-color="#7579FF"/>
</linearGradient>
<linearGradient id="paint6_linear_16_200" x1="1095.42" y1="477.575" x2="1183.55" y2="477.575" gradientUnits="userSpaceOnUse">
<stop stop-color="#B224EF"/>
<stop offset="1" stop-color="#7579FF"/>
</linearGradient>
<linearGradient id="paint7_linear_16_200" x1="1154.23" y1="547.417" x2="1193.56" y2="547.417" gradientUnits="userSpaceOnUse">
<stop stop-color="#B224EF"/>
<stop offset="1" stop-color="#7579FF"/>
</linearGradient>
<linearGradient id="paint8_linear_16_200" x1="1095.23" y1="532.273" x2="1183.78" y2="532.273" gradientUnits="userSpaceOnUse">
<stop stop-color="#B224EF"/>
<stop offset="1" stop-color="#7579FF"/>
</linearGradient>
<linearGradient id="paint9_linear_16_200" x1="594" y1="489.5" x2="917.948" y2="489.5" gradientUnits="userSpaceOnUse">
<stop stop-color="#B224EF"/>
<stop offset="1" stop-color="#7579FF"/>
</linearGradient>
<linearGradient id="paint10_linear_16_200" x1="715.974" y1="387.417" x2="795.974" y2="387.417" gradientUnits="userSpaceOnUse">
<stop stop-color="#B224EF"/>
<stop offset="1" stop-color="#7579FF"/>
</linearGradient>
<linearGradient id="paint11_linear_16_200" x1="764.126" y1="416.657" x2="805.006" y2="416.657" gradientUnits="userSpaceOnUse">
<stop stop-color="#B224EF"/>
<stop offset="1" stop-color="#7579FF"/>
</linearGradient>
<linearGradient id="paint12_linear_16_200" x1="706.697" y1="416.657" x2="747.577" y2="416.657" gradientUnits="userSpaceOnUse">
<stop stop-color="#B224EF"/>
<stop offset="1" stop-color="#7579FF"/>
</linearGradient>
<linearGradient id="paint13_linear_16_200" x1="721.558" y1="372.25" x2="790.391" y2="372.25" gradientUnits="userSpaceOnUse">
<stop stop-color="#B224EF"/>
<stop offset="1" stop-color="#7579FF"/>
</linearGradient>
</defs>
</svg>
