<svg width="166" height="23" viewBox="0 0 166 23" fill="none" xmlns="http://www.w3.org/2000/svg">
<path fill-rule="evenodd" clip-rule="evenodd" d="M44.2447 13.5446C37.1129 15.6231 28.8789 17.6916 20.9577 18.2081C14.1874 18.6489 7.64784 17.9642 2.29514 15.051C1.5406 14.6408 0.595708 14.9228 0.187646 15.6819C-0.221038 16.4403 0.060124 17.3902 0.814665 17.801C6.65381 20.9781 13.7737 21.8091 21.1586 21.3277C29.2222 20.8024 37.6049 18.7202 44.8798 16.6117C45.7239 18.3306 47.4718 19.9332 50.551 21.1157C55.2804 22.9321 61.7378 22.9096 68.5405 21.886C78.4068 20.4022 89.0201 16.8637 95.844 14.3494C96.1239 14.2468 96.5407 14.0836 97.0507 13.8685C97.2062 14.2137 97.3804 14.5539 97.5732 14.8878C99.2465 17.7979 102.208 20.1508 105.224 20.9912C124.359 26.32 146.69 19.9351 164.872 14.7389C165.693 14.5032 166.172 13.6378 165.942 12.808C165.706 11.9783 164.848 11.4962 164.02 11.7319C146.348 16.783 124.651 23.156 106.052 17.9779C103.763 17.3401 101.536 15.5318 100.267 13.3233C100.124 13.0769 99.9992 12.8249 99.881 12.5692C102.388 11.3205 105.336 9.57965 106.923 7.71627C108.552 5.806 108.957 3.76692 107.538 1.84102C106.319 0.194622 104.472 0.054553 102.55 0.908079C100.478 1.82226 98.3446 3.95948 97.6541 4.96245C96.3602 6.83583 95.9497 8.86806 96.1861 10.8496C95.5765 11.1085 95.0814 11.3011 94.7759 11.4136C88.1014 13.8723 77.7275 17.3427 68.0802 18.794C61.8728 19.7282 55.9764 19.8526 51.6607 18.1955C49.82 17.4883 48.6039 16.663 47.9439 15.705C49.2465 15.3136 50.5024 14.9284 51.7024 14.5607C54.0755 13.8335 59.0164 12.6298 62.5465 10.4844C65.3538 8.77865 67.2572 6.45818 67.1465 3.54932C67.0899 2.05487 66.2296 1.05751 64.8605 0.498493C62.8146 -0.336274 59.2764 0.0676573 57.9589 0.349039C53.9629 1.20069 48.6295 4.72611 45.9907 8.6986C44.9376 10.2837 44.3112 11.942 44.2447 13.5446ZM47.5272 12.5679C48.6562 12.2265 49.7473 11.8913 50.7954 11.5699C53.0105 10.8909 57.641 9.81223 60.9372 7.80879C62.6827 6.74829 64.1078 5.47771 64.0388 3.66874C64.0332 3.52804 63.8944 3.48804 63.7719 3.43051C63.5822 3.34234 63.3651 3.28167 63.1337 3.23415C61.568 2.91275 59.4649 3.22351 58.6039 3.40734C55.2511 4.12205 50.791 7.10159 48.5772 10.435C48.1094 11.1391 47.7368 11.8563 47.5272 12.5679ZM99.259 9.41018C100.721 8.6542 102.251 7.74001 103.458 6.74517C104.099 6.2168 104.64 5.67344 104.982 5.10942C105.268 4.64295 105.38 4.1652 105.038 3.70373C104.901 3.51677 104.696 3.51304 104.484 3.54806C104.26 3.58558 104.03 3.66559 103.8 3.76877C102.282 4.44033 100.715 6.0092 100.211 6.74517C99.6198 7.59869 99.3274 8.50163 99.259 9.41018Z" fill="url(#paint0_linear_16_311)"/>
<defs>
<linearGradient id="paint0_linear_16_311" x1="0" y1="11.5" x2="166" y2="11.5" gradientUnits="userSpaceOnUse">
<stop stop-color="#B224EF"/>
<stop offset="1" stop-color="#7579FF"/>
</linearGradient>
</defs>
</svg>
